<?xml version="1.0" encoding="UTF-8"?>
<!DOCTYPE svg PUBLIC "-//W3C//DTD SVG 1.1//EN" "http://www.w3.org/Graphics/SVG/1.1/DTD/svg11.dtd">
<!-- Creator: CorelDRAW X6 -->
<svg xmlns="http://www.w3.org/2000/svg" xml:space="preserve" width="16.5354in" height="11.6929in" version="1.1" style="shape-rendering:geometricPrecision; text-rendering:geometricPrecision; image-rendering:optimizeQuality; fill-rule:evenodd; clip-rule:evenodd"
viewBox="0 0 16535 11693"
 xmlns:xlink="http://www.w3.org/1999/xlink">
 <defs>
  <style type="text/css">
   <![CDATA[
    .str0 {stroke:black;stroke-width:6.94488}
    .fil0 {fill:#003399}
    .fil1 {fill:#457418}
   ]]>
  </style>
 </defs>
 <g id="Layer_x0020_1">
  <metadata id="CorelCorpID_0Corel-Layer"/>
  <path class="fil0 str0" d="M6071 7836l-3415 -2054 3675 1447 -2662 -2923 3067 2474 -1866 -3617 2489 3371 -825 -4181 1403 3993 364 -4239 243 4123 1476 -3906 -796 3979 2489 -3328 -1895 3776 3183 -2517 -2749 2966 3465 -1367 -3056 1908c893,-335 1944,-399 3107,-194 217,-1454 265,-2917 -752,-4521 -1682,-2518 -3902,-3122 -6511,-2344 -1501,556 -2599,1631 -3406,3190 -519,1222 -561,2468 -306,3729 1138,-161 2140,-105 3278,235z"/>
  <path class="fil1 str0" d="M8701 9028c1400,-836 3003,-1086 4789,-803 -630,1349 -1786,2429 -3226,3103 -509,-1079 -662,-1465 -1563,-2300z"/>
  <path class="fil1 str0" d="M7888 9028c-1400,-836 -3003,-1086 -4789,-803 630,1349 1786,2429 3226,3103 509,-1079 662,-1465 1563,-2300z"/>
 </g>
</svg>
